<?xml version="1.0" encoding="UTF-8" standalone="no"?>
<!-- Created with Inkscape (http://www.inkscape.org/) -->
<svg
   xmlns:dc="http://purl.org/dc/elements/1.1/"
   xmlns:cc="http://creativecommons.org/ns#"
   xmlns:rdf="http://www.w3.org/1999/02/22-rdf-syntax-ns#"
   xmlns:svg="http://www.w3.org/2000/svg"
   xmlns="http://www.w3.org/2000/svg"
   xmlns:sodipodi="http://sodipodi.sourceforge.net/DTD/sodipodi-0.dtd"
   xmlns:inkscape="http://www.inkscape.org/namespaces/inkscape"
   width="744.09448819"
   height="1052.3622047"
   id="svg2"
   sodipodi:version="0.32"
   inkscape:version="0.46"
   sodipodi:docname="icon-outline.svg"
   inkscape:output_extension="org.inkscape.output.svg.inkscape">
  <defs
     id="defs4">
    <inkscape:perspective
       sodipodi:type="inkscape:persp3d"
       inkscape:vp_x="0 : 526.18109 : 1"
       inkscape:vp_y="0 : 1000 : 0"
       inkscape:vp_z="744.09448 : 526.18109 : 1"
       inkscape:persp3d-origin="372.04724 : 350.78739 : 1"
       id="perspective10" />
    <inkscape:perspective
       id="perspective2390"
       inkscape:persp3d-origin="372.04724 : 350.78739 : 1"
       inkscape:vp_z="744.09448 : 526.18109 : 1"
       inkscape:vp_y="0 : 1000 : 0"
       inkscape:vp_x="0 : 526.18109 : 1"
       sodipodi:type="inkscape:persp3d" />
    <inkscape:perspective
       id="perspective2409"
       inkscape:persp3d-origin="80 : 53.333333 : 1"
       inkscape:vp_z="160 : 80 : 1"
       inkscape:vp_y="0 : 1000 : 0"
       inkscape:vp_x="0 : 80 : 1"
       sodipodi:type="inkscape:persp3d" />
  </defs>
  <sodipodi:namedview
     id="base"
     pagecolor="#ffffff"
     bordercolor="#666666"
     borderopacity="1.0"
     gridtolerance="10000"
     guidetolerance="10"
     objecttolerance="10"
     inkscape:pageopacity="0.0"
     inkscape:pageshadow="2"
     inkscape:zoom="0.49497475"
     inkscape:cx="700.72233"
     inkscape:cy="408.11621"
     inkscape:document-units="px"
     inkscape:current-layer="g2412"
     showgrid="false"
     inkscape:window-width="1280"
     inkscape:window-height="723"
     inkscape:window-x="0"
     inkscape:window-y="25" />
  <metadata
     id="metadata7">
    <rdf:RDF>
      <cc:Work
         rdf:about="">
        <dc:format>image/svg+xml</dc:format>
        <dc:type
           rdf:resource="http://purl.org/dc/dcmitype/StillImage" />
      </cc:Work>
    </rdf:RDF>
  </metadata>
  <g
     inkscape:label="Layer 1"
     inkscape:groupmode="layer"
     id="layer1">
    <g
       id="g2412"
       transform="translate(208.85714,96.93361)">
      <path
         id="path2398"
         d="M 91.894145,397.35567 L 219.89415,397.35567 L 219.89415,525.35567 L 216.37415,525.35567 C 206.32415,496.73567 196.57415,467.99567 186.09415,439.52567 C 190.19415,437.35567 193.83415,433.99567 195.33415,429.49567 C 198.16415,421.86567 194.67415,412.60567 187.43415,408.83567 C 179.31415,404.07567 167.80415,407.79567 163.95415,416.37567 C 159.81415,424.32567 163.47415,435.00567 171.48415,438.90567 C 174.05415,440.39567 177.07415,440.56567 179.95415,440.89567 C 183.81415,469.07567 187.83415,497.24567 192.16415,525.35567 L 146.94415,525.35567 C 138.48415,507.71567 130.48415,489.84567 121.81415,472.29567 C 125.77415,469.58567 128.80415,465.24567 128.95415,460.34567 C 129.51415,452.22567 122.00415,444.57567 113.81415,445.30567 C 105.15415,445.33567 98.214145,454.56567 100.44415,462.90567 C 101.88415,470.05567 109.21415,474.76567 116.30415,474.24567 C 120.32415,491.31567 124.34415,508.39567 128.80415,525.35567 L 91.894145,525.35567 L 91.894145,397.35567 z"
         style="fill:none;stroke:#555753;stroke-width:1.5" />
    </g>
  </g>
</svg>
