<?xml version="1.0" encoding="UTF-8" standalone="no"?>
<!-- Created with Inkscape (http://www.inkscape.org/) -->
<svg
   xmlns:dc="http://purl.org/dc/elements/1.1/"
   xmlns:cc="http://creativecommons.org/ns#"
   xmlns:rdf="http://www.w3.org/1999/02/22-rdf-syntax-ns#"
   xmlns:svg="http://www.w3.org/2000/svg"
   xmlns="http://www.w3.org/2000/svg"
   xmlns:xlink="http://www.w3.org/1999/xlink"
   xmlns:sodipodi="http://sodipodi.sourceforge.net/DTD/sodipodi-0.dtd"
   xmlns:inkscape="http://www.inkscape.org/namespaces/inkscape"
   width="744.09448819"
   height="1052.3622047"
   id="svg2"
   sodipodi:version="0.32"
   inkscape:version="0.46"
   sodipodi:docname="logo-mac.svg"
   inkscape:output_extension="org.inkscape.output.svg.inkscape">
  <defs
     id="defs4">
    <linearGradient
       id="linearGradient3262">
      <stop
         style="stop-color:#3b132b;stop-opacity:1;"
         offset="0"
         id="stop3264" />
      <stop
         style="stop-color:#871f5e;stop-opacity:1"
         offset="1"
         id="stop3266" />
    </linearGradient>
    <linearGradient
       id="linearGradient3250">
      <stop
         style="stop-color:#871f5e;stop-opacity:0;"
         offset="1"
         id="stop3252" />
    </linearGradient>
    <inkscape:perspective
       sodipodi:type="inkscape:persp3d"
       inkscape:vp_x="0 : 526.18109 : 1"
       inkscape:vp_y="0 : 1000 : 0"
       inkscape:vp_z="744.09448 : 526.18109 : 1"
       inkscape:persp3d-origin="372.04724 : 350.78739 : 1"
       id="perspective10" />
    <linearGradient
       inkscape:collect="always"
       xlink:href="#linearGradient3262"
       id="linearGradient3268"
       x1="170"
       y1="647.36218"
       x2="170"
       y2="742.36218"
       gradientUnits="userSpaceOnUse" />
  </defs>
  <sodipodi:namedview
     id="base"
     pagecolor="#51ffff"
     bordercolor="#666666"
     borderopacity="1.0"
     gridtolerance="10000"
     guidetolerance="10"
     objecttolerance="10"
     inkscape:pageopacity="0"
     inkscape:pageshadow="2"
     inkscape:zoom="3.9597979"
     inkscape:cx="263.83156"
     inkscape:cy="363.72264"
     inkscape:document-units="px"
     inkscape:current-layer="layer3"
     showgrid="true"
     inkscape:window-width="1276"
     inkscape:window-height="718"
     inkscape:window-x="0"
     inkscape:window-y="25"
     showguides="true"
     inkscape:guide-bbox="true">
    <inkscape:grid
       type="xygrid"
       id="grid2406"
       visible="true"
       enabled="true" />
  </sodipodi:namedview>
  <metadata
     id="metadata7">
    <rdf:RDF>
      <cc:Work
         rdf:about="">
        <dc:format>image/svg+xml</dc:format>
        <dc:type
           rdf:resource="http://purl.org/dc/dcmitype/StillImage" />
      </cc:Work>
    </rdf:RDF>
  </metadata>
  <g
     inkscape:label="Layer 1"
     inkscape:groupmode="layer"
     id="layer1"
     style="display:inline" />
  <g
     inkscape:groupmode="layer"
     id="layer3"
     inkscape:label="background"
     style="display:inline">
    <rect
       style="opacity:1;fill:#ffffff;fill-opacity:1;stroke:none;stroke-width:1;stroke-linecap:round;stroke-linejoin:round;stroke-miterlimit:4;stroke-dasharray:none;stroke-dashoffset:0;stroke-opacity:1"
       id="rect2408"
       width="95"
       height="95"
       x="125"
       y="647.36218"
       rx="12.37976"
       ry="12.37976" />
    <path
       style="opacity:1;fill:#ffffff;fill-opacity:1;stroke:none;stroke-width:10.61151123;stroke-linecap:round;stroke-linejoin:round;stroke-miterlimit:4;stroke-dasharray:none;stroke-dashoffset:0;stroke-opacity:1;display:inline"
       d="M 219.6875,663.5625 C 217.96692,663.07874 216.22787,662.66578 214.46875,662.375 C 212.59262,662.06487 210.67905,661.86635 208.78125,661.78125 C 206.88345,661.69615 204.99034,661.72938 203.09375,661.875 C 200.81785,662.04975 198.55058,662.38944 196.3125,662.90625 C 194.07442,663.42306 191.87854,664.10176 189.71875,664.96875 C 187.55896,665.83574 185.44728,666.89972 183.40625,668.125 C 181.36522,669.35028 179.38181,670.75207 177.5,672.34375 C 175.32514,674.18329 173.35935,676.22133 171.625,678.40625 C 169.89065,680.59117 168.39705,682.92985 167.125,685.375 C 165.85295,687.82015 164.81921,690.37978 164.03125,693 C 163.24329,695.62022 162.68833,698.28985 162.40625,701 C 162.12417,703.71015 162.09815,706.44133 162.34375,709.15625 C 162.58935,711.87117 163.11117,714.58422 163.90625,717.21875 C 164.70133,719.85328 165.7899,722.406 167.15625,724.875 C 168.5226,727.344 170.16559,729.71919 172.125,731.9375 C 173.76801,733.79761 175.58886,735.45954 177.53125,736.9375 C 179.47364,738.41546 181.52213,739.70702 183.6875,740.78125 C 184.75977,741.3132 185.91831,741.63351 187.03125,742.0625 L 207.3125,742.0625 C 214.17089,742.0625 219.68749,736.54591 219.6875,729.6875 L 219.6875,687.28125 C 218.86615,686.86156 218.07889,686.38966 217.21875,686.0625 C 215.72983,685.49619 214.17196,685.06269 212.59375,684.78125 C 211.01554,684.49981 209.41459,684.36194 207.78125,684.375 C 206.14791,684.38806 204.45021,684.59705 202.78125,685 C 201.11229,685.40295 199.48339,686.00474 197.90625,686.8125 C 196.32911,687.62026 194.82664,688.61625 193.46875,689.84375 C 192.11086,691.07125 190.88621,692.52535 189.875,694.1875 C 189.0223,695.58911 188.38738,697.0033 187.96875,698.40625 C 187.55012,699.8092 187.36101,701.20079 187.34375,702.59375 C 187.32649,703.98671 187.49235,705.37834 187.84375,706.75 C 188.19515,708.12166 188.71889,709.47347 189.40625,710.8125 C 190.09361,712.15153 191.08323,713.55852 192.40625,714.75 C 193.06776,715.34574 193.83008,715.88312 194.65625,716.34375 C 195.48242,716.80438 196.38035,717.17747 197.375,717.4375 C 198.36965,717.69753 199.37593,717.82219 200.375,717.8125 C 201.37407,717.80281 202.35173,717.66958 203.3125,717.4375 C 204.27327,717.20542 205.214,716.87588 206.09375,716.46875 C 206.9735,716.06162 207.80649,715.56608 208.5625,715.03125 C 209.18739,714.60317 209.74799,714.09693 210.21875,713.53125 C 210.68951,712.96557 211.07539,712.35297 211.375,711.6875 C 211.67461,711.02203 211.88855,710.28995 212,709.5625 C 212.11145,708.83505 212.125,708.09537 212.03125,707.34375 C 211.9375,706.59212 211.72422,705.86529 211.4375,705.1875 C 211.15078,704.50971 210.7664,703.88399 210.3125,703.3125 C 209.8586,702.74101 209.34529,702.24521 208.75,701.8125 C 208.15471,701.37979 207.49214,701.01147 206.78125,700.75 C 207.16282,700.69659 207.42695,700.56633 207.90625,700.5625 C 208.99872,700.55377 210.23662,700.83611 211.40625,701.28125 C 212.57588,701.72639 213.67722,702.33434 214.4375,703.03125 C 215.15209,703.68627 215.74506,704.4044 216.25,705.1875 C 216.75494,705.9706 217.16486,706.81186 217.46875,707.6875 C 217.77264,708.56314 217.98231,709.4736 218.09375,710.40625 C 218.20519,711.3389 218.22866,712.29587 218.15625,713.25 C 218.08384,714.20413 217.90391,715.15368 217.65625,716.09375 C 217.40859,717.03382 217.10182,717.98451 216.6875,718.875 C 216.27318,719.76549 215.75987,720.60089 215.1875,721.40625 C 214.61513,722.21161 213.97183,722.97154 213.25,723.65625 C 212.24424,724.61029 211.15463,725.42637 210,726.09375 C 208.84537,726.76113 207.63301,727.26502 206.375,727.65625 C 205.11699,728.04748 203.8159,728.31192 202.5,728.4375 C 201.1841,728.56308 199.85957,728.56707 198.53125,728.4375 C 197.20293,728.30793 195.85775,728.06171 194.5625,727.6875 C 193.26725,727.31329 191.99795,726.79586 190.78125,726.1875 C 189.56455,725.57914 188.40517,724.86324 187.3125,724.03125 C 186.21983,723.19926 185.2044,722.26388 184.28125,721.21875 C 183.11738,719.9011 182.12062,718.48904 181.3125,717 C 180.50438,715.51096 179.87079,713.94867 179.40625,712.34375 C 178.94171,710.73883 178.66439,709.07154 178.53125,707.40625 C 178.39811,705.74096 178.4389,704.07641 178.625,702.40625 C 178.8111,700.73609 179.13183,699.08826 179.625,697.46875 C 180.11817,695.84924 180.77444,694.26336 181.5625,692.75 C 182.35056,691.23664 183.27296,689.7892 184.34375,688.4375 C 185.41454,687.0858 186.62741,685.82203 187.96875,684.6875 C 189.573,683.33059 191.29699,682.18574 193.09375,681.25 C 194.89051,680.31426 196.76306,679.59115 198.6875,679.0625 C 200.61194,678.53385 202.57519,678.19814 204.5625,678.0625 C 206.54981,677.92686 208.5459,677.97546 210.53125,678.21875 C 212.5166,678.46204 214.48767,678.89187 216.40625,679.5 C 217.53329,679.85723 218.60126,680.42697 219.6875,680.90625 L 219.6875,663.5625 z"
       id="path2454"
       inkscape:export-filename="/home/masa/programming/javascript/keysnail/skin/classic/keysnail/rect3157.png"
       inkscape:export-xdpi="243.17999"
       inkscape:export-ydpi="243.17999" />
    <g
       id="g3212"
       style="fill-opacity:1.0;fill:url(#linearGradient3268)">
      <path
         inkscape:export-ydpi="243.17999"
         inkscape:export-xdpi="243.17999"
         inkscape:export-filename="/home/masa/programming/javascript/keysnail/skin/classic/keysnail/rect3157.png"
         id="path2456"
         d="M 219.6875,680.90625 C 218.60126,680.42697 217.53329,679.85723 216.40625,679.5 C 214.48767,678.89187 212.5166,678.46204 210.53125,678.21875 C 208.5459,677.97546 206.54981,677.92686 204.5625,678.0625 C 202.57519,678.19814 200.61194,678.53385 198.6875,679.0625 C 196.76306,679.59115 194.89051,680.31426 193.09375,681.25 C 191.29699,682.18574 189.573,683.33059 187.96875,684.6875 C 186.62741,685.82203 185.41454,687.0858 184.34375,688.4375 C 183.27296,689.7892 182.35056,691.23664 181.5625,692.75 C 180.77444,694.26336 180.11817,695.84924 179.625,697.46875 C 179.13183,699.08826 178.8111,700.73609 178.625,702.40625 C 178.4389,704.07641 178.39811,705.74096 178.53125,707.40625 C 178.66439,709.07154 178.94171,710.73883 179.40625,712.34375 C 179.87079,713.94867 180.50438,715.51096 181.3125,717 C 182.12062,718.48904 183.11738,719.9011 184.28125,721.21875 C 185.2044,722.26388 186.21983,723.19926 187.3125,724.03125 C 188.40517,724.86324 189.56455,725.57914 190.78125,726.1875 C 191.99795,726.79586 193.26725,727.31329 194.5625,727.6875 C 195.85775,728.06171 197.20293,728.30793 198.53125,728.4375 C 199.85957,728.56707 201.1841,728.56308 202.5,728.4375 C 203.8159,728.31192 205.11699,728.04748 206.375,727.65625 C 207.63301,727.26502 208.84537,726.76113 210,726.09375 C 211.15463,725.42637 212.24424,724.61029 213.25,723.65625 C 213.97183,722.97154 214.61513,722.21161 215.1875,721.40625 C 215.75987,720.60089 216.27318,719.76549 216.6875,718.875 C 217.10182,717.98451 217.40859,717.03382 217.65625,716.09375 C 217.90391,715.15368 218.08384,714.20413 218.15625,713.25 C 218.22866,712.29587 218.20519,711.3389 218.09375,710.40625 C 217.98231,709.4736 217.77264,708.56314 217.46875,707.6875 C 217.16486,706.81186 216.75494,705.9706 216.25,705.1875 C 215.74506,704.4044 215.15209,703.68627 214.4375,703.03125 C 213.67722,702.33434 212.57588,701.72639 211.40625,701.28125 C 210.23662,700.83611 208.99872,700.55377 207.90625,700.5625 C 207.42695,700.56633 207.16282,700.69659 206.78125,700.75 C 207.49214,701.01147 208.15471,701.37979 208.75,701.8125 C 209.34529,702.24521 209.8586,702.74101 210.3125,703.3125 C 210.7664,703.88399 211.15078,704.50971 211.4375,705.1875 C 211.72422,705.86529 211.9375,706.59212 212.03125,707.34375 C 212.125,708.09537 212.11145,708.83505 212,709.5625 C 211.88855,710.28995 211.67461,711.02203 211.375,711.6875 C 211.07539,712.35297 210.68951,712.96557 210.21875,713.53125 C 209.74799,714.09693 209.18739,714.60317 208.5625,715.03125 C 207.80649,715.56608 206.9735,716.06162 206.09375,716.46875 C 205.214,716.87588 204.27327,717.20542 203.3125,717.4375 C 202.35173,717.66958 201.37407,717.80281 200.375,717.8125 C 199.37593,717.82219 198.36965,717.69753 197.375,717.4375 C 196.38035,717.17747 195.48242,716.80438 194.65625,716.34375 C 193.83008,715.88312 193.06776,715.34574 192.40625,714.75 C 191.08323,713.55852 190.09361,712.15153 189.40625,710.8125 C 188.71889,709.47347 188.19515,708.12166 187.84375,706.75 C 187.49235,705.37834 187.32649,703.98671 187.34375,702.59375 C 187.36101,701.20079 187.55012,699.8092 187.96875,698.40625 C 188.38738,697.0033 189.0223,695.58911 189.875,694.1875 C 190.88621,692.52535 192.11086,691.07125 193.46875,689.84375 C 194.82664,688.61625 196.32911,687.62026 197.90625,686.8125 C 199.48339,686.00474 201.11229,685.40295 202.78125,685 C 204.45021,684.59705 206.14791,684.38806 207.78125,684.375 C 209.41459,684.36194 211.01554,684.49981 212.59375,684.78125 C 214.17196,685.06269 215.72983,685.49619 217.21875,686.0625 C 218.07889,686.38966 218.86615,686.86156 219.6875,687.28125 L 219.6875,680.90625 z"
         style="opacity:1;fill:url(#linearGradient3268);fill-opacity:1.0;stroke:none;stroke-width:10.61151122999999963;stroke-linecap:round;stroke-linejoin:round;stroke-miterlimit:4;stroke-dasharray:none;stroke-dashoffset:0;stroke-opacity:1;display:inline" />
      <path
         inkscape:export-ydpi="243.17999"
         inkscape:export-xdpi="243.17999"
         id="rect3157"
         d="M 137.34375,647.3125 C 130.48536,647.3125 124.9375,652.82911 124.9375,659.6875 L 124.9375,729.6875 C 124.9375,736.54589 130.48536,742.06252 137.34375,742.0625 L 187.03125,742.0625 C 185.91831,741.63351 184.75977,741.3132 183.6875,740.78125 C 181.52213,739.70702 179.47364,738.41546 177.53125,736.9375 C 175.58886,735.45954 173.76801,733.79761 172.125,731.9375 C 170.16559,729.71919 168.5226,727.344 167.15625,724.875 C 165.7899,722.406 164.70133,719.85328 163.90625,717.21875 C 163.11117,714.58422 162.58935,711.87117 162.34375,709.15625 C 162.09815,706.44133 162.12417,703.71015 162.40625,701 C 162.68833,698.28985 163.24329,695.62022 164.03125,693 C 164.81921,690.37978 165.85295,687.82015 167.125,685.375 C 168.39705,682.92985 169.89065,680.59117 171.625,678.40625 C 173.35935,676.22133 175.32514,674.18329 177.5,672.34375 C 179.38181,670.75207 181.36522,669.35028 183.40625,668.125 C 185.44728,666.89972 187.55896,665.83574 189.71875,664.96875 C 191.87854,664.10176 194.07442,663.42306 196.3125,662.90625 C 198.55058,662.38944 200.81785,662.04975 203.09375,661.875 C 204.99034,661.72938 206.88345,661.69615 208.78125,661.78125 C 210.67905,661.86635 212.59262,662.06487 214.46875,662.375 C 216.22787,662.66578 217.96692,663.07874 219.6875,663.5625 L 219.6875,659.6875 C 219.6875,652.82911 214.17088,647.3125 207.3125,647.3125 L 137.34375,647.3125 z"
         style="opacity:1;fill:url(#linearGradient3268);fill-opacity:1.0;stroke:none;stroke-width:10.61151122999999963;stroke-linecap:round;stroke-linejoin:round;stroke-miterlimit:4;stroke-dasharray:none;stroke-dashoffset:0;stroke-opacity:1;display:inline" />
    </g>
    <path
       style="opacity:0.3;fill:#eeeeec;fill-opacity:1;stroke:none;stroke-width:10.61151123;stroke-linecap:round;stroke-linejoin:round;stroke-miterlimit:4;stroke-dasharray:none;stroke-dashoffset:0;stroke-opacity:1;display:inline"
       d="M 137.34375,647.3125 C 130.48536,647.3125 124.9375,650.46223 124.9375,654.37805 L 124.9375,682.36218 C 175,689.35822 175,689.35822 219.6,682.36218 L 219.688,654.37805 C 219.688,650.46223 214.17088,647.3125 207.3125,647.3125 L 137.34375,647.3125 z"
       id="path2404"
       inkscape:export-xdpi="243.17999"
       inkscape:export-ydpi="243.17999"
       sodipodi:nodetypes="ccccccc" />
  </g>
  <g
     inkscape:groupmode="layer"
     id="layer2"
     inkscape:label="body"
     style="display:inline">
    <g
       id="g2400"
       transform="matrix(1.3241967,0,0,1.3241967,-41.149584,-238.2511)">
      <path
         transform="matrix(1.2424527,0,0,1.2424527,-31.77261,-114.55978)"
         d="M 136.60714,670.39789 A 1.7857143,1.7857143 0 1 1 133.03571,670.39789 A 1.7857143,1.7857143 0 1 1 136.60714,670.39789 z"
         sodipodi:ry="1.7857143"
         sodipodi:rx="1.7857143"
         sodipodi:cy="670.39789"
         sodipodi:cx="134.82143"
         id="path3600"
         style="opacity:1;fill:#ffffff;fill-opacity:1;stroke:none;stroke-width:10;stroke-linecap:round;stroke-linejoin:round;stroke-miterlimit:4;stroke-dasharray:none;stroke-dashoffset:0;stroke-opacity:1"
         sodipodi:type="arc" />
      <path
         sodipodi:nodetypes="cccc"
         id="path3611"
         d="M 135.06654,716.591 C 135.06654,716.591 145.40674,762.16968 149.95586,764.7067 L 152.9892,763.54516 C 156.21476,759.40935 135.06654,716.591 135.06654,716.591 z"
         style="fill:#ffffff;fill-opacity:1;fill-rule:evenodd;stroke:none;stroke-width:2.14975619px;stroke-linecap:butt;stroke-linejoin:miter;stroke-opacity:1" />
    </g>
    <g
       id="g2396"
       transform="matrix(1.5639,0,0,1.5639,-86.839631,-406.85554)">
      <path
         transform="matrix(1.2424527,0,0,1.2424527,-14.948004,-121.5206)"
         d="M 136.60714,670.39789 A 1.7857143,1.7857143 0 1 1 133.03571,670.39789 A 1.7857143,1.7857143 0 1 1 136.60714,670.39789 z"
         sodipodi:ry="1.7857143"
         sodipodi:rx="1.7857143"
         sodipodi:cy="670.39789"
         sodipodi:cx="134.82143"
         id="path3613"
         style="opacity:1;fill:#ffffff;fill-opacity:1;stroke:none;stroke-width:10;stroke-linecap:round;stroke-linejoin:round;stroke-miterlimit:4;stroke-dasharray:none;stroke-dashoffset:0;stroke-opacity:1"
         sodipodi:type="arc" />
      <path
         sodipodi:nodetypes="cccc"
         id="path3615"
         d="M 152.16652,709.96631 C 152.16652,709.96631 157.07518,749.23408 160.69654,751.75147 L 163.34939,751.02591 C 166.41243,747.81027 152.16652,709.96631 152.16652,709.96631 z"
         style="fill:#ffffff;fill-opacity:1;fill-rule:evenodd;stroke:none;stroke-width:2.14975619px;stroke-linecap:butt;stroke-linejoin:miter;stroke-opacity:1" />
    </g>
  </g>
</svg>
